<svg width="354" height="439" viewBox="0 0 354 439" fill="none" xmlns="http://www.w3.org/2000/svg">
<path fill-rule="evenodd" clip-rule="evenodd" d="M132 437.556H177H222C263.728 437.556 297.556 403.728 297.556 362V307.044C297.556 280.578 305.432 254.71 320.183 232.735L329.373 219.043C344.123 197.068 352 171.2 352 144.734V102C352 46.7715 307.229 2 252 2H177H102C46.7715 2 2 46.7715 2 102V144.734C2 171.2 9.87674 197.068 24.6272 219.043L33.8173 232.735C48.5677 254.71 56.4445 280.578 56.4445 307.044V362C56.4445 403.728 90.2719 437.556 132 437.556Z" fill="#FADA7A"/>
<path d="M320.183 232.735L321.105 233.354L320.183 232.735ZM329.373 219.043L328.45 218.424L329.373 219.043ZM24.6272 219.043L23.7046 219.662H23.7046L24.6272 219.043ZM33.8173 232.735L34.7399 232.115L33.8173 232.735ZM177 436.444H132V438.667H177V436.444ZM177 438.667H222V436.444H177V438.667ZM222 438.667C264.342 438.667 298.667 404.342 298.667 362H296.444C296.444 403.115 263.115 436.444 222 436.444V438.667ZM298.667 362V307.044H296.444V362H298.667ZM298.667 307.044C298.667 280.798 306.478 255.146 321.105 233.354L319.26 232.115C304.387 254.274 296.444 280.357 296.444 307.044H298.667ZM321.105 233.354L330.295 219.662L328.45 218.424L319.26 232.115L321.105 233.354ZM330.295 219.662C345.169 197.504 353.111 171.421 353.111 144.734H350.889C350.889 170.98 343.078 196.632 328.45 218.424L330.295 219.662ZM353.111 144.734V102H350.889V144.734H353.111ZM353.111 102C353.111 46.1579 307.842 0.888889 252 0.888889V3.11111C306.615 3.11111 350.889 47.3852 350.889 102H353.111ZM252 0.888889H177V3.11111H252V0.888889ZM102 3.11111H177V0.888889H102V3.11111ZM3.11111 102C3.11111 47.3852 47.3852 3.11111 102 3.11111V0.888889C46.1579 0.888889 0.888889 46.1579 0.888889 102H3.11111ZM3.11111 144.734V102H0.888889V144.734H3.11111ZM25.5497 218.424C10.9222 196.632 3.11111 170.98 3.11111 144.734H0.888889C0.888889 171.421 8.83127 197.504 23.7046 219.662L25.5497 218.424ZM34.7399 232.115L25.5497 218.424L23.7046 219.662L32.8948 233.354L34.7399 232.115ZM57.5556 307.044C57.5556 280.357 49.6132 254.274 34.7399 232.115L32.8948 233.354C47.5223 255.146 55.3333 280.798 55.3333 307.044H57.5556ZM57.5556 362V307.044H55.3333V362H57.5556ZM132 436.444C90.8855 436.444 57.5556 403.115 57.5556 362H55.3333C55.3333 404.342 89.6582 438.667 132 438.667V436.444Z" fill="black"/>
</svg>
